<?xml version="1.0" encoding="UTF-8"?>
<svg xmlns="http://www.w3.org/2000/svg" viewBox="0 0 749.62 303.18">
  <defs>
    <style>
      .cls-1 {
        stroke: #009492;
        stroke-miterlimit: 10;
      }

      .cls-1, .cls-2 {
        fill: #009492;
      }

      .cls-3 {
        fill: #470094;
      }

      .cls-3, .cls-2, .cls-4, .cls-5, .cls-6, .cls-7 {
        stroke-width: 0px;
      }

      .cls-4 {
        fill: #fff;
      }

      .cls-5 {
        fill: #005092;
      }

      .cls-6 {
        fill: #068100;
      }

      .cls-7 {
        fill: #47003e;
      }
    </style>
  </defs>
  <g id="S">
    <g>
      <path class="cls-4" d="m171.8,61.46C151.14,20.76,102.59,8.06,71.57,26.96c-39.76,24.23-33.37,89.8-9.83,108.46,19.16,15.19,43.75-5.39,77.79,13.3,6.36,3.49,28.29,16.73,34.77,41.12,8.32,31.28-12.74,65.97-38.6,80.94-34.23,19.81-84.58,9.57-117.94-28.81"/>
      <path class="cls-6" d="m156.19,69.39c-6.8-13.01-18.18-23.52-31.89-28.77-16.34-6.52-37.53-5.37-49.92,8.05-15.03,16.34-15.49,46.42-4.9,65.51,1.69,2.68,3.08,4.7,5.52,6.19,2.33,1.07,4.49.98,7.93.95,4.73-.14,11.27-.97,18.58-1.27,15.27-.94,32.98,2.35,46.84,9.93,29.97,15.5,51.94,45.77,48.97,80.62-1.77,24.2-13.61,46.77-30.5,63.79-35,36.14-90.81,36.17-132.03,11.65-13.15-7.63-24.89-17.41-34.8-28.63,0,0,35.5-30.86,35.5-30.86,12.83,15.2,30.77,26.7,50.16,30.29,13.87,2.55,27.6,1.16,39.47-5.62,18.16-10.82,33.41-34.18,28.66-55.7-3.68-14.62-17.17-26.16-30.88-31.8-16.83-6.7-34.52.32-52.58-3.17-40.38-7.67-51.87-60.33-44.79-95.12C35.88,11.3,87.85-13.22,137.81,7.09c21.48,8.71,39.44,25.84,49.6,46.44,0,0-31.23,15.86-31.23,15.86h0Z"/>
    </g>
  </g>
  <g id="L">
    <g>
      <rect class="cls-2" x="213.76" y="9.43" width="38" height="285"/>
      <path class="cls-2" d="m251.26,9.93v284h-37V9.93h37m1-1h-39v286h39V8.93h0Z"/>
    </g>
    <rect class="cls-1" x="213.76" y="259.43" width="159" height="37"/>
  </g>
  <g id="E1">
    <g>
      <path class="cls-4" d="m408.39,196.42c-14.46,30.37-48.82,44.86-78.21,34.82-34.11-11.65-47.73-51.6-37.92-82.14,8.08-25.15,33.9-49.62,64.96-45.52,23.46,3.1,43.47,21.63,50.1,46.85l-115.06-1.33"/>
      <path class="cls-5" d="m420.41,202.14c-20.08,40.48-73.59,58.21-111.29,30.71-35.48-26.06-40.54-80.57-11.87-113.38,27.33-32.8,71.98-36.01,102.11-4.91,8.8,9.27,15.16,20.78,18.67,33.04,0,0,4.01,14.31,4.02,14.32-29.83-.75-78.69-2.26-108.33-3.19-.96.04-2.66-.25-3.6.21-2.79,1.71-4.98-1.74-7.16-2.92,0,0-3.57-2.17-3.57-2.17-2.38-1.45-4.76-2.91-7.14-4.26,0,0,.01-1,.01-1,3.46-1.87,7.4-4.18,10.86-6.18,1.75-.91,3.36-3.02,5.43-3.29.6-.06,1.2.27,1.79.53.6.3,1.2.3,1.79.29,0,0,1.8,0,1.8,0,22.4-.15,70.61-.62,93.51-.61,0,0-10.85,13.9-10.85,13.9-.44-1.48-.78-2.99-1.27-4.45-.23-.76-.92-2.54-1.15-3.27-.75-1.63-1.54-3.68-2.44-5.22-17.04-32.06-55.45-36.38-78.76-7.74-16.65,19.45-17.55,48.35-3.41,69.41,13.72,20.94,41.54,26.35,63.13,14.43,10.51-5.7,18.96-14.88,23.67-25.71l24.05,11.45h0Z"/>
    </g>
  </g>
  <g id="E2">
    <g>
      <path class="cls-4" d="m565.39,200.42c-14.46,30.37-48.82,44.86-78.21,34.82-34.11-11.65-47.73-51.6-37.92-82.14,8.08-25.15,33.9-49.62,64.96-45.52,23.46,3.1,43.47,21.63,50.1,46.85l-115.06-1.33"/>
      <path class="cls-3" d="m577.41,206.14c-20.07,40.48-73.59,58.21-111.29,30.71-35.48-26.06-40.54-80.57-11.87-113.38,27.33-32.8,71.98-36.01,102.11-4.91,8.8,9.27,15.16,20.78,18.67,33.04,0,0,4.01,14.31,4.02,14.32-29.83-.75-78.69-2.26-108.33-3.19-.96.04-2.66-.25-3.6.21-2.79,1.71-4.98-1.74-7.16-2.92,0,0-3.57-2.17-3.57-2.17-2.38-1.45-4.76-2.91-7.14-4.26,0,0,.01-1,.01-1,3.46-1.87,7.4-4.18,10.86-6.18,1.75-.91,3.36-3.02,5.43-3.29.6-.06,1.2.27,1.79.53.6.3,1.2.3,1.79.29,0,0,1.8,0,1.8,0,22.4-.15,70.61-.62,93.51-.61,0,0-10.85,13.9-10.85,13.9-.44-1.48-.78-2.99-1.27-4.45-.23-.76-.92-2.54-1.15-3.27-.75-1.63-1.54-3.68-2.44-5.22-17.04-32.06-55.45-36.38-78.76-7.74-16.65,19.45-17.55,48.35-3.41,69.41,13.72,20.94,41.54,26.35,63.13,14.43,10.51-5.7,18.96-14.88,23.67-25.71l24.05,11.45h0Z"/>
    </g>
  </g>
  <g id="P">
    <path class="cls-7" d="m612.13,112.54c3.06.96,4.31,1.92,5.03,2.88.57.77.42,2,.51,2.88,0,0,.31,5.75.31,5.75,1.43,26.21.64,54.19.41,80.52,0,26.98.13,65.39-.14,92.02,0,0-23.69,0-23.69,0-.39-35.38.12-79.48-.39-115.03-.32-19.17-.33-38.35.66-57.51.05-.63.35-6.55.39-7.19,0-.48.1-.96.43-1.44.72-.96,1.97-1.92,5.03-2.88,0,0,11.45,0,11.45,0h0Z"/>
    <g>
      <path class="cls-4" d="m604.92,167.29c39.41,22.31,86.83,14.45,111.95-15.38,18.66-22.16,23.46-54.59,13.29-81.79-2.67-7.14-11.24-26.93-32.1-39.77-27.42-16.88-64.48-14.62-95.3,4.86l2.16,132.08Z"/>
      <path class="cls-7" d="m615.46,161.03c.12-1.1-.31-2.22-1.2-2.68,1.6.76,3.99,1.88,5.65,2.54,32.15,13.78,75.08,5.29,92.55-26.72,16.18-28.77,9.14-68.1-17.87-87.81-13.62-9.95-30.72-13.19-47.7-10.83-12.44,1.75-24.57,6.62-35.38,13.54,0,0,7.62-14.11,7.62-14.11.26,1.29.26,2.58.24,3.87-.35,28.5-1.18,61.27-2.24,89.94,0,0-.57,15.93-.57,15.93-.25,4.92-.12,11.36-1.11,16.35h0Zm-21.08,12.52c-1.17-4.39-1.25-11.98-1.65-16.67-1.71-26.81-3.85-59.64-5.06-86.38-.36-7.97-1.08-22.77-1.39-30.63-.45-3.42,1.49-12.73,1.87-16.15,0,0,5.86-2.35,5.86-2.35,37.59-23.63,89.72-25.95,124.07,5.12,37.38,33.25,42.29,93.64,10.66,132.44-28.55,35.62-81.64,42.81-121.44,23.45,0,0-2.84-1.41-2.84-1.41-3.71-1.71-7.41-4.43-10.08-7.41h0Z"/>
    </g>
  </g>
</svg>